<svg width="83" height="83" viewBox="0 0 83 83" fill="none" xmlns="http://www.w3.org/2000/svg">
<path fill-rule="evenodd" clip-rule="evenodd" d="M39.77 33.3425H29.6645L15.5 21.5H54.551C62.564 21.962 67.004 26.2925 67.871 34.4915C67.9235 35.639 67.9235 37.724 67.871 40.7465C67.604 45.416 65.315 48.986 61.001 51.455C61.2305 51.6785 64.0025 54.044 69.3155 58.5545H59.21L52.934 53.129H27.683V58.5545H21.101V46.715H45.248L39.6125 41.885H49.6685L55.3445 46.715C59.3315 45.6155 61.3265 43.304 61.3265 39.7805C61.34 38.4545 61.34 36.848 61.3265 34.961C60.7655 30.7415 58.5815 28.406 54.77 27.956C54.467 27.965 47.2985 27.965 33.263 27.956L39.77 33.3425Z" fill="#FDF3D0"/>
<path fill-rule="evenodd" clip-rule="evenodd" d="M41.75 77.9992C41.6667 77.9997 41.5834 78 41.5 78C21.3416 78 5 61.6584 5 41.5C5 21.3416 21.3416 5 41.5 5C61.6584 5 78 21.3416 78 41.5C78 52.4797 73.152 62.3271 65.4798 69.0184L69.3114 72.3026C77.7176 64.7081 83 53.7209 83 41.5C83 18.5802 64.4198 0 41.5 0C18.5802 0 0 18.5802 0 41.5C0 64.4198 18.5802 83 41.5 83C41.5834 83 41.6667 82.9997 41.75 82.9993V77.9992Z" fill="#FDF3D0"/>
</svg>
